<svg
  xmlns="http://www.w3.org/2000/svg"
  xmlns:xlink="http://www.w3.org/1999/xlink"
  style="position: absolute; width: 0; height: 0"
  aria-hidden="true"
>
  <symbol id="NavbarLogo">
    <g transform="translate(-3894 2762)">
      <rect
        width="50"
        height="50"
        rx="8"
        transform="translate(3894 -2762)"
        fill="#07a081"
      ></rect>
      <path
        d="M32.671,44.73h7.091V37.935H41.9a5.657,5.657,0,1,0,0-11.314H32.671Zm10.763,3.622H29V23H41.9a9.271,9.271,0,0,1,1.53,18.435Z"
        transform="translate(3880 -2773)"
        fill="#fff"
      ></path>
      <path
        d="M1.694,0h2.6V-6.16H7.656a6.579,6.579,0,0,0,2.915-.616,4.639,4.639,0,0,0,1.969-1.76,5.1,5.1,0,0,0,.7-2.728,5.146,5.146,0,0,0-.7-2.75,4.639,4.639,0,0,0-1.969-1.76,6.579,6.579,0,0,0-2.915-.616H1.694Zm2.6-8.47v-5.61H7.722a3.03,3.03,0,0,1,2.134.748,2.641,2.641,0,0,1,.814,2.046A2.684,2.684,0,0,1,9.856-9.24a2.978,2.978,0,0,1-2.134.77ZM20.372.264a5.925,5.925,0,0,0,3.179-.836,4.64,4.64,0,0,0,1.9-2.112l-2.024-.99a3.73,3.73,0,0,1-1.2,1.243,3.29,3.29,0,0,1-1.837.5A3.458,3.458,0,0,1,18-2.827a3.433,3.433,0,0,1-1.1-2.409H25.74a3.34,3.34,0,0,0,.088-.572q.022-.308.022-.594a6.154,6.154,0,0,0-.671-2.849,5.361,5.361,0,0,0-1.936-2.112,5.61,5.61,0,0,0-3.069-.8,5.7,5.7,0,0,0-3,.8,5.773,5.773,0,0,0-2.1,2.2,6.476,6.476,0,0,0-.77,3.179A6.482,6.482,0,0,0,15.081-2.8,5.9,5.9,0,0,0,17.226-.561,5.958,5.958,0,0,0,20.372.264Zm-.2-10.34a3,3,0,0,1,2.112.792,2.9,2.9,0,0,1,.924,2.068H16.94a3.313,3.313,0,0,1,1.122-2.112A3.208,3.208,0,0,1,20.174-10.076ZM26.422,0h2.926l2.706-3.982L34.738,0h2.926L33.506-5.962l4.18-5.94H34.76L32.054-7.964,29.348-11.9H26.422l4.158,5.94ZM44.088.264a5.925,5.925,0,0,0,3.179-.836,4.64,4.64,0,0,0,1.9-2.112l-2.024-.99a3.73,3.73,0,0,1-1.2,1.243,3.29,3.29,0,0,1-1.837.5,3.458,3.458,0,0,1-2.4-.891,3.433,3.433,0,0,1-1.1-2.409h8.844a3.34,3.34,0,0,0,.088-.572q.022-.308.022-.594A6.154,6.154,0,0,0,48.9-9.251a5.361,5.361,0,0,0-1.936-2.112,5.61,5.61,0,0,0-3.069-.8,5.7,5.7,0,0,0-3,.8,5.773,5.773,0,0,0-2.1,2.2,6.476,6.476,0,0,0-.77,3.179A6.482,6.482,0,0,0,38.8-2.8,5.9,5.9,0,0,0,40.942-.561,5.958,5.958,0,0,0,44.088.264Zm-.2-10.34A3,3,0,0,1,46-9.284a2.9,2.9,0,0,1,.924,2.068h-6.27a3.313,3.313,0,0,1,1.122-2.112A3.208,3.208,0,0,1,43.89-10.076ZM51.546,0h2.486V-16.654H51.546ZM60.9.264a5.6,5.6,0,0,0,2.321-.451,3.635,3.635,0,0,0,1.551-1.254,3.21,3.21,0,0,0,.55-1.859,3.088,3.088,0,0,0-.792-2.123A4.635,4.635,0,0,0,62.26-6.732L60.324-7.3a4.436,4.436,0,0,1-1.034-.484,1.023,1.023,0,0,1-.484-.924,1.212,1.212,0,0,1,.484-1.012,2.068,2.068,0,0,1,1.3-.374,3.005,3.005,0,0,1,1.705.506A2.944,2.944,0,0,1,63.4-8.228l1.914-.9a4.344,4.344,0,0,0-1.8-2.233,5.337,5.337,0,0,0-2.9-.8,5.1,5.1,0,0,0-2.178.451,3.7,3.7,0,0,0-1.518,1.243,3.2,3.2,0,0,0-.55,1.87,3.1,3.1,0,0,0,.759,2.09,4.624,4.624,0,0,0,2.3,1.32l1.87.528a3.923,3.923,0,0,1,1.078.473,1.057,1.057,0,0,1,.506.957,1.259,1.259,0,0,1-.55,1.078,2.391,2.391,0,0,1-1.43.4,3.2,3.2,0,0,1-1.881-.594A4.049,4.049,0,0,1,57.684-3.96l-1.914.9a4.774,4.774,0,0,0,1.925,2.42A5.7,5.7,0,0,0,60.9.264Z"
        transform="translate(3959 -2728)"
        fill="#fff"
      ></path>
    </g>
  </symbol>
  <symbol id="NavbarLogoDark">
    <g transform="translate(-3894 2762)">
      <rect
        width="50"
        height="50"
        rx="8"
        transform="translate(3894 -2762)"
        fill="#07a081"
      ></rect>
      <path
        d="M32.671,44.73h7.091V37.935H41.9a5.657,5.657,0,1,0,0-11.314H32.671Zm10.763,3.622H29V23H41.9a9.271,9.271,0,0,1,1.53,18.435Z"
        transform="translate(3880 -2773)"
        fill="#fff"
      ></path>
      <path
        d="M1.694,0h2.6V-6.16H7.656a6.579,6.579,0,0,0,2.915-.616,4.639,4.639,0,0,0,1.969-1.76,5.1,5.1,0,0,0,.7-2.728,5.146,5.146,0,0,0-.7-2.75,4.639,4.639,0,0,0-1.969-1.76,6.579,6.579,0,0,0-2.915-.616H1.694Zm2.6-8.47v-5.61H7.722a3.03,3.03,0,0,1,2.134.748,2.641,2.641,0,0,1,.814,2.046A2.684,2.684,0,0,1,9.856-9.24a2.978,2.978,0,0,1-2.134.77ZM20.372.264a5.925,5.925,0,0,0,3.179-.836,4.64,4.64,0,0,0,1.9-2.112l-2.024-.99a3.73,3.73,0,0,1-1.2,1.243,3.29,3.29,0,0,1-1.837.5A3.458,3.458,0,0,1,18-2.827a3.433,3.433,0,0,1-1.1-2.409H25.74a3.34,3.34,0,0,0,.088-.572q.022-.308.022-.594a6.154,6.154,0,0,0-.671-2.849,5.361,5.361,0,0,0-1.936-2.112,5.61,5.61,0,0,0-3.069-.8,5.7,5.7,0,0,0-3,.8,5.773,5.773,0,0,0-2.1,2.2,6.476,6.476,0,0,0-.77,3.179A6.482,6.482,0,0,0,15.081-2.8,5.9,5.9,0,0,0,17.226-.561,5.958,5.958,0,0,0,20.372.264Zm-.2-10.34a3,3,0,0,1,2.112.792,2.9,2.9,0,0,1,.924,2.068H16.94a3.313,3.313,0,0,1,1.122-2.112A3.208,3.208,0,0,1,20.174-10.076ZM26.422,0h2.926l2.706-3.982L34.738,0h2.926L33.506-5.962l4.18-5.94H34.76L32.054-7.964,29.348-11.9H26.422l4.158,5.94ZM44.088.264a5.925,5.925,0,0,0,3.179-.836,4.64,4.64,0,0,0,1.9-2.112l-2.024-.99a3.73,3.73,0,0,1-1.2,1.243,3.29,3.29,0,0,1-1.837.5,3.458,3.458,0,0,1-2.4-.891,3.433,3.433,0,0,1-1.1-2.409h8.844a3.34,3.34,0,0,0,.088-.572q.022-.308.022-.594A6.154,6.154,0,0,0,48.9-9.251a5.361,5.361,0,0,0-1.936-2.112,5.61,5.61,0,0,0-3.069-.8,5.7,5.7,0,0,0-3,.8,5.773,5.773,0,0,0-2.1,2.2,6.476,6.476,0,0,0-.77,3.179A6.482,6.482,0,0,0,38.8-2.8,5.9,5.9,0,0,0,40.942-.561,5.958,5.958,0,0,0,44.088.264Zm-.2-10.34A3,3,0,0,1,46-9.284a2.9,2.9,0,0,1,.924,2.068h-6.27a3.313,3.313,0,0,1,1.122-2.112A3.208,3.208,0,0,1,43.89-10.076ZM51.546,0h2.486V-16.654H51.546ZM60.9.264a5.6,5.6,0,0,0,2.321-.451,3.635,3.635,0,0,0,1.551-1.254,3.21,3.21,0,0,0,.55-1.859,3.088,3.088,0,0,0-.792-2.123A4.635,4.635,0,0,0,62.26-6.732L60.324-7.3a4.436,4.436,0,0,1-1.034-.484,1.023,1.023,0,0,1-.484-.924,1.212,1.212,0,0,1,.484-1.012,2.068,2.068,0,0,1,1.3-.374,3.005,3.005,0,0,1,1.705.506A2.944,2.944,0,0,1,63.4-8.228l1.914-.9a4.344,4.344,0,0,0-1.8-2.233,5.337,5.337,0,0,0-2.9-.8,5.1,5.1,0,0,0-2.178.451,3.7,3.7,0,0,0-1.518,1.243,3.2,3.2,0,0,0-.55,1.87,3.1,3.1,0,0,0,.759,2.09,4.624,4.624,0,0,0,2.3,1.32l1.87.528a3.923,3.923,0,0,1,1.078.473,1.057,1.057,0,0,1,.506.957,1.259,1.259,0,0,1-.55,1.078,2.391,2.391,0,0,1-1.43.4,3.2,3.2,0,0,1-1.881-.594A4.049,4.049,0,0,1,57.684-3.96l-1.914.9a4.774,4.774,0,0,0,1.925,2.42A5.7,5.7,0,0,0,60.9.264Z"
        transform="translate(3959 -2728)"
        fill="#000"
      ></path>
    </g>
  </symbol>
  <symbol id="Searchbar">
    <path d="M0 0h24v24H0V0z" fill="none"></path>
    <path
      d="M15.5 14h-.79l-.28-.27c1.2-1.4 1.82-3.31 1.48-5.34-.47-2.78-2.79-5-5.59-5.34-4.23-.52-7.79 3.04-7.27 7.27.34 2.8 2.56 5.12 5.34 5.59 2.03.34 3.94-.28 5.34-1.48l.27.28v.79l4.25 4.25c.41.41 1.08.41 1.49 0 .41-.41.41-1.08 0-1.49L15.5 14zm-6 0C7.01 14 5 11.99 5 9.5S7.01 5 9.5 5 14 7.01 14 9.5 11.99 14 9.5 14z"
    ></path>
  </symbol>
  <symbol id="DropdownArrow">
    <path d="M24 24H0V0h24v24z" fill="none"></path>
    <path
      d="M15.88 9.29L12 13.17 8.12 9.29c-.39-.39-1.02-.39-1.41 0-.39.39-.39 1.02 0 1.41l4.59 4.59c.39.39 1.02.39 1.41 0l4.59-4.59c.39-.39.39-1.02 0-1.41-.39-.38-1.03-.39-1.42 0z"
    ></path>
  </symbol>
  <symbol id="DropdownSelected">
    <path d="M0 0h24v24H0V0z" fill="none"></path>
    <path
      d="M9 16.17L5.53 12.7c-.39-.39-1.02-.39-1.41 0-.39.39-.39 1.02 0 1.41l4.18 4.18c.39.39 1.02.39 1.41 0L20.29 7.71c.39-.39.39-1.02 0-1.41-.39-.39-1.02-.39-1.41 0L9 16.17z"
    ></path>
  </symbol>
  <symbol id="PhotoCardDownload">
    <g>
      <path
        d="M72.2,43.2L58,57.4V17c0-2.2-1.8-4-4-4s-4,1.8-4,4v40.4L35.8,43.2c-1.6-1.6-4.1-1.6-5.7,0c-1.6,1.6-1.6,4.1,0,5.7l21,21   C52,70.7,53,71,54,71s2-0.4,2.8-1.2l21-21c1.6-1.6,1.6-4.1,0-5.7C76.3,41.6,73.8,41.6,72.2,43.2z"
      ></path>
      <path
        d="M32,87h44c2.2,0,4-1.8,4-4s-1.8-4-4-4H32c-2.2,0-4,1.8-4,4S29.8,87,32,87z"
      ></path>
    </g>
  </symbol>
  <symbol id="PhotoCardLike">
    <path
      d="M16.5 3c-1.74 0-3.41.81-4.5 2.09C10.91 3.81 9.24 3 7.5 3 4.42 3 2 5.42 2 8.5c0 3.78 3.4 6.86 8.55 11.54L12 21.35l1.45-1.32C18.6 15.36 22 12.28 22 8.5 22 5.42 19.58 3 16.5 3zm-4.4 15.55l-.1.1-.1-.1C7.14 14.24 4 11.39 4 8.5 4 6.5 5.5 5 7.5 5c1.54 0 3.04.99 3.57 2.36h1.87C13.46 5.99 14.96 5 16.5 5c2 0 3.5 1.5 3.5 3.5 0 2.89-3.14 5.74-7.9 10.05z"
    ></path>
  </symbol>
  <symbol id="PhotoCardLikeFilled">
    <path
      d="M12 21.35l-1.45-1.32C5.4 15.36 2 12.28 2 8.5 2 5.42 4.42 3 7.5 3c1.74 0 3.41.81 4.5 2.09C13.09 3.81 14.76 3 16.5 3 19.58 3 22 5.42 22 8.5c0 3.78-3.4 6.86-8.55 11.54L12 21.35z"
    ></path>
  </symbol>
</svg>
